<svg xmlns="http://www.w3.org/2000/svg" width="500" height="300" viewBox="0 0 500 300" fill="none">
  <rect width="500" height="300" rx="20" fill="white"/>
  
  <!-- Header -->
  <rect width="500" height="60" rx="20" fill="#9B51E0" opacity="0.1"/>
  <text x="30" y="38" font-family="Arial" font-size="20" font-weight="bold" fill="#9B51E0">AI Analysis</text>
  
  <!-- Graph -->
  <rect x="30" y="80" width="440" height="200" rx="10" fill="#F5F7FA"/>
  
  <!-- Y-axis -->
  <text x="50" y="100" font-family="Arial" font-size="10" fill="#666666">Great</text>
  <text x="50" y="140" font-family="Arial" font-size="10" fill="#666666">Good</text>
  <text x="50" y="180" font-family="Arial" font-size="10" fill="#666666">Okay</text>
  <text x="50" y="220" font-family="Arial" font-size="10" fill="#666666">Low</text>
  <text x="50" y="260" font-family="Arial" font-size="10" fill="#666666">Poor</text>
  
  <!-- X-axis -->
  <text x="100" y="280" font-family="Arial" font-size="10" fill="#666666">Mon</text>
  <text x="160" y="280" font-family="Arial" font-size="10" fill="#666666">Tue</text>
  <text x="220" y="280" font-family="Arial" font-size="10" fill="#666666">Wed</text>
  <text x="280" y="280" font-family="Arial" font-size="10" fill="#666666">Thu</text>
  <text x="340" y="280" font-family="Arial" font-size="10" fill="#666666">Fri</text>
  <text x="400" y="280" font-family="Arial" font-size="10" fill="#666666">Sat</text>
  <text x="460" y="280" font-family="Arial" font-size="10" fill="#666666">Sun</text>
  
  <!-- Line Graph -->
  <path d="M100 140 L160 220 L220 220 L280 180 L340 140 L400 100 L460 100" stroke="#4A90E2" stroke-width="3" fill="none"/>
  
  <!-- Data Points -->
  <circle cx="100" cy="140" r="5" fill="#4A90E2"/>
  <circle cx="160" cy="220" r="5" fill="#4A90E2"/>
  <circle cx="220" cy="220" r="5" fill="#4A90E2"/>
  <circle cx="280" cy="180" r="5" fill="#4A90E2"/>
  <circle cx="340" cy="140" r="5" fill="#4A90E2"/>
  <circle cx="400" cy="100" r="5" fill="#4A90E2"/>
  <circle cx="460" cy="100" r="5" fill="#4A90E2"/>
  
  <!-- Insights -->
  <rect x="320" y="120" width="120" height="60" rx="10" fill="white" stroke="#9B51E0" stroke-width="1"/>
  <text x="330" y="140" font-family="Arial" font-size="10" font-weight="bold" fill="#9B51E0">Insights:</text>
  <text x="330" y="155" font-family="Arial" font-size="8" fill="#666666">- Mood improves on weekends</text>
  <text x="330" y="170" font-family="Arial" font-size="8" fill="#666666">- Stress peaks on Tuesdays</text>
</svg>
