<svg xmlns="http://www.w3.org/2000/svg" width="40" height="40" viewBox="0 0 40 40" fill="none">
  <circle cx="20" cy="20" r="18" fill="#6FCF97" opacity="0.1"/>
  <path d="M28 14H26V20C26 20.55 25.55 21 25 21H15V23H26C27.1 23 28 22.1 28 21V14Z" fill="#6FCF97"/>
  <path d="M24 10H12C10.9 10 10 10.9 10 12V18C10 19.1 10.9 20 12 20H24C25.1 20 26 19.1 26 18V12C26 10.9 25.1 10 24 10ZM24 18H12V12H24V18Z" fill="#6FCF97"/>
  <path d="M16 25H14V27H16V25Z" fill="#6FCF97"/>
  <path d="M20 25H18V27H20V25Z" fill="#6FCF97"/>
  <path d="M24 25H22V27H24V25Z" fill="#6FCF97"/>
</svg>
