<svg xmlns="http://www.w3.org/2000/svg" width="30" height="30" viewBox="0 0 30 30" fill="none">
  <path d="M15 3C8.373 3 3 8.373 3 15C3 21.627 8.373 27 15 27C21.627 27 27 21.627 27 15C27 8.373 21.627 3 15 3ZM12 21H9V12H12V21ZM10.5 10.732C9.534 10.732 8.75 9.942 8.75 8.968C8.75 7.994 9.534 7.204 10.5 7.204C11.466 7.204 12.25 7.994 12.25 8.968C12.25 9.942 11.466 10.732 10.5 10.732ZM22 21H19V16.396C19 13.028 15 13.283 15 16.396V21H12V12H15V13.765C16.396 11.179 22 11.035 22 15.826V21Z" fill="#4A90E2"/>
</svg>
