<svg xmlns="http://www.w3.org/2000/svg" width="40" height="40" viewBox="0 0 40 40" fill="none">
  <circle cx="20" cy="20" r="18" fill="#4A90E2" opacity="0.2"/>
  <path d="M20 10C14.486 10 10 14.486 10 20C10 25.514 14.486 30 20 30C25.514 30 30 25.514 30 20C30 14.486 25.514 10 20 10ZM20 28C15.589 28 12 24.411 12 20C12 15.589 15.589 12 20 12C24.411 12 28 15.589 28 20C28 24.411 24.411 28 20 28Z" fill="#4A90E2"/>
  <path d="M16 19C17.1046 19 18 18.1046 18 17C18 15.8954 17.1046 15 16 15C14.8954 15 14 15.8954 14 17C14 18.1046 14.8954 19 16 19Z" fill="#4A90E2"/>
  <path d="M24 19C25.1046 19 26 18.1046 26 17C26 15.8954 25.1046 15 24 15C22.8954 15 22 15.8954 22 17C22 18.1046 22.8954 19 24 19Z" fill="#4A90E2"/>
  <path d="M14 22C14 24.7614 16.6863 27 20 27C23.3137 27 26 24.7614 26 22H24C24 23.6569 22.2091 25 20 25C17.7909 25 16 23.6569 16 22H14Z" fill="#4A90E2"/>
</svg>
