<svg xmlns="http://www.w3.org/2000/svg" width="40" height="40" viewBox="0 0 40 40" fill="none">
  <circle cx="20" cy="20" r="18" fill="#4A90E2" opacity="0.1"/>
  <path d="M20 10C14.48 10 10 14.48 10 20C10 25.52 14.48 30 20 30C25.52 30 30 25.52 30 20C30 14.48 25.52 10 20 10ZM20 28C15.59 28 12 24.41 12 20C12 15.59 15.59 12 20 12C24.41 12 28 15.59 28 20C28 24.41 24.41 28 20 28Z" fill="#4A90E2"/>
  <path d="M15 17C15.5523 17 16 16.5523 16 16C16 15.4477 15.5523 15 15 15C14.4477 15 14 15.4477 14 16C14 16.5523 14.4477 17 15 17Z" fill="#4A90E2"/>
  <path d="M25 17C25.5523 17 26 16.5523 26 16C26 15.4477 25.5523 15 25 15C24.4477 15 24 15.4477 24 16C24 16.5523 24.4477 17 25 17Z" fill="#4A90E2"/>
  <path d="M20 26C22.21 26 24.1 24.7 25 22.8L23.3 22C22.71 23.33 21.45 24.2 20 24.2C18.55 24.2 17.29 23.33 16.7 22L15 22.8C15.9 24.7 17.79 26 20 26Z" fill="#4A90E2"/>
</svg>
