<svg xmlns="http://www.w3.org/2000/svg" width="40" height="40" viewBox="0 0 40 40" fill="none">
  <circle cx="20" cy="20" r="18" fill="#9B51E0" opacity="0.1"/>
  <path d="M28 12H22C22 10.9 21.1 10 20 10C18.9 10 18 10.9 18 12H12C10.9 12 10 12.9 10 14V28C10 29.1 10.9 30 12 30H28C29.1 30 30 29.1 30 28V14C30 12.9 29.1 12 28 12ZM20 12C20.55 12 21 12.45 21 13C21 13.55 20.55 14 20 14C19.45 14 19 13.55 19 13C19 12.45 19.45 12 20 12ZM28 28H12V14H14V16C14 16.55 14.45 17 15 17H25C25.55 17 26 16.55 26 16V14H28V28Z" fill="#9B51E0"/>
  <path d="M15 20H25V22H15V20Z" fill="#9B51E0"/>
  <path d="M15 23H25V25H15V23Z" fill="#9B51E0"/>
</svg>
