<svg xmlns="http://www.w3.org/2000/svg" width="30" height="30" viewBox="0 0 30 30" fill="none">
  <path d="M26.37 9.18C25.59 9.53 24.75 9.77 23.87 9.87C24.77 9.33 25.46 8.46 25.79 7.42C24.95 7.93 24.02 8.3 23.02 8.5C22.22 7.64 21.06 7.1 19.77 7.1C17.29 7.1 15.28 9.11 15.28 11.59C15.28 11.94 15.32 12.28 15.39 12.6C11.58 12.42 8.19 10.63 5.9 7.92C5.52 8.58 5.3 9.33 5.3 10.14C5.3 11.66 6.09 13.01 7.29 13.79C6.57 13.77 5.89 13.57 5.29 13.24V13.29C5.29 15.47 6.84 17.29 8.91 17.7C8.54 17.8 8.15 17.85 7.75 17.85C7.47 17.85 7.19 17.82 6.92 17.77C7.48 19.56 9.14 20.86 11.09 20.89C9.55 22.1 7.62 22.82 5.53 22.82C5.17 22.82 4.82 22.8 4.47 22.75C6.44 24.04 8.78 24.79 11.28 24.79C19.77 24.79 24.4 17.93 24.4 12.01C24.4 11.81 24.4 11.62 24.39 11.42C25.24 10.81 25.99 10.05 26.59 9.18H26.37Z" fill="#4A90E2"/>
</svg>
